<svg width="361" height="55" viewBox="0 0 361 55" fill="none" xmlns="http://www.w3.org/2000/svg">
<path d="M1.49857 5.82334C18.0507 2.70784 29.7251 6.08577 36.9822 12.2402C27.5073 22.3523 17.2768 34.5279 13.5719 38.9838C12.8226 39.8851 13.1525 41.1348 14.2854 41.4365C19.3849 42.7944 31.3834 44.9177 41.04 46.5378C37.6943 50.4538 32.7646 53.1426 26.3779 53.5689L5.00021 54.9959C3.99001 55.0632 3.11627 54.2995 3.04871 53.29L0.00390889 7.73069C-0.0569924 6.81964 0.600582 5.99244 1.49857 5.82334ZM49.0408 0.402419C50.0289 -0.429221 51.4474 0.0943033 51.6704 1.36581C52.5683 6.48642 54.3493 19.7397 54.9436 46.6075C54.9687 47.7462 53.9775 48.649 52.852 48.4699C50.3862 48.0772 46.0253 47.3742 41.04 46.5378C48.8398 37.4086 48.0285 21.608 36.9822 12.2402C41.4159 7.50836 45.6839 3.22799 49.0408 0.402419Z" fill="white"/>
<path d="M172.635 11.7282C172.926 11.7282 173.184 11.9125 173.279 12.187L180.7 33.6459L186.13 12.2422C186.207 11.9401 186.479 11.7283 186.791 11.7282H192.295C192.585 11.7282 192.844 11.9125 192.939 12.187L200.004 33.9072H200.293L208.915 12.2422C208.992 11.94 209.264 11.7282 209.576 11.7282H213.846C214.3 11.7282 214.626 12.1627 214.5 12.5982L202.523 43.2712H196.669L189.343 20.8208L182.864 43.2718H177.011L167.007 12.6205C166.863 12.1803 167.192 11.7283 167.654 11.7282H172.635Z" fill="white"/>
<path d="M111.98 43.2716V12.9246C111.98 12.2638 112.516 11.7282 113.178 11.7282H123.817C126.242 11.7282 128.276 12.1492 129.92 12.9911C131.575 13.8331 132.823 15.014 133.666 16.5336C134.519 18.0431 134.945 19.804 134.945 21.8165C134.945 23.8394 134.514 25.5952 133.651 27.084C132.798 28.5626 131.539 29.7075 129.874 30.5186C128.21 31.3196 126.165 31.7201 123.741 31.7201H115.309V26.9762H122.97C124.388 26.9762 125.549 26.7811 126.453 26.391C127.357 25.9905 128.025 25.4104 128.456 24.6505C128.899 23.8804 129.119 22.9358 129.119 21.8165C129.119 20.6973 128.899 19.7424 128.456 18.9517C128.014 18.1509 127.341 17.545 126.438 17.1343C125.533 16.7133 124.367 16.5028 122.939 16.5028H117.698V43.2716H111.98ZM128.287 28.9785L136.101 43.2716H129.721L122.045 28.9785H128.287Z" fill="white"/>
<path d="M144.696 43.2716H138.592L149.396 12.6071C149.581 12.0804 150.079 11.7282 150.638 11.7282H155.832C156.39 11.7282 156.888 12.0802 157.074 12.6065L167.891 43.2716H161.788L153.358 18.1971H153.111L144.696 43.2716Z" fill="white"/>
<path d="M161.542 30.9037H144.896V35.4935H161.542V30.9037Z" fill="white"/>
<path d="M264.146 43.2752V12.7108C264.146 12.1663 264.59 11.7248 265.136 11.7248H268.895C269.442 11.7248 269.885 12.1663 269.885 12.7108V38.4841H283.839V43.2752H264.146Z" fill="white"/>
<path d="M294.005 11.7248C294.552 11.7248 294.995 12.1663 294.995 12.7108V43.2752H289.255V12.7108C289.255 12.1663 289.699 11.7248 290.245 11.7248H294.005Z" fill="white"/>
<path d="M322.869 21.8C322.612 20.9681 322.256 20.2235 321.802 19.5662C321.358 18.8987 320.822 18.3286 320.193 17.8562C319.575 17.3838 318.863 17.0295 318.058 16.7932C317.254 16.5467 316.378 16.4235 315.429 16.4235C313.727 16.4235 312.211 16.8497 310.881 17.7021C309.55 18.5546 308.503 19.8076 307.741 21.4611C306.988 23.1043 306.611 25.107 306.611 27.4692C306.611 29.8519 306.988 31.87 307.741 33.5235C308.493 35.177 309.54 36.4351 310.881 37.2978C312.221 38.1503 313.778 38.5765 315.552 38.5765C317.161 38.5765 318.554 38.2684 319.729 37.6522C320.915 37.0359 321.828 36.163 322.467 35.0332C323.106 33.8933 323.427 32.5581 323.427 31.0279L324.726 31.2281H316.125V26.7606H328.98V30.5503C328.98 33.2513 328.403 35.5879 327.248 37.5597C326.092 39.5317 324.504 41.0517 322.483 42.1197C320.462 43.1776 318.141 43.7065 315.521 43.7065C312.603 43.7065 310.04 43.0544 307.833 41.75C305.637 40.4354 303.92 38.5714 302.682 36.1579C301.454 33.734 300.841 30.8584 300.841 27.5308C300.841 24.9838 301.202 22.7089 301.924 20.7062C302.656 18.7035 303.677 17.0037 304.987 15.6071C306.296 14.2 307.833 13.1319 309.597 12.4027C311.36 11.6632 313.279 11.2935 315.352 11.2935C317.105 11.2935 318.739 11.5503 320.255 12.0638C321.771 12.567 323.117 13.2859 324.292 14.2206C325.478 15.1551 326.453 16.2643 327.217 17.5481C327.979 18.8319 328.48 20.2492 328.717 21.8H322.869Z" fill="white"/>
<path d="M360.01 11.7248C360.557 11.7248 361 12.1663 361 12.7108V43.2752H355.895L340.967 21.7846H340.705V43.2752H334.965V12.7108C334.965 12.1663 335.408 11.7248 335.955 11.7248H339.582C339.906 11.7248 340.211 11.884 340.397 12.1505L355.014 33.2308H355.292V12.7108C355.292 12.1663 355.735 11.7248 356.282 11.7248H360.01Z" fill="white"/>
<path d="M225.181 43.2807H231.314L244.966 12.7544C245.446 11.682 246.828 11.3792 247.643 12.2254C258.016 22.9908 257.146 40.5066 256.412 43.2807H250.561C250.561 43.2807 251.623 35.1749 250.414 30.0647C248.303 21.1424 243.622 16.0797 240.326 13.6683C239.491 13.0573 238.347 13.4384 237.929 14.3849L225.181 43.2807Z" fill="white"/>
<path d="M252.468 31.767C252.468 30.7993 251.683 30.0147 250.715 30.0147H233.162C232.194 30.0147 231.409 30.7993 231.409 31.767V33.1856C231.409 34.1533 232.194 34.9379 233.162 34.9379H250.715C251.683 34.9379 252.468 34.1533 252.468 33.1856V31.767Z" fill="white"/>
<path d="M77.1476 43.1168V17.135C77.1476 16.211 78.0167 15.5333 78.9142 15.7583L82.6162 16.687V37.7135H91.431C94.2381 37.6567 95.7589 37.3145 97.1891 36.5165C98.629 35.7287 99.7317 34.5492 100.468 32.9532C101.203 31.3673 101.727 29.9386 101.791 27.8969C101.861 25.7268 101.565 24.3348 100.681 22.3515C99.8266 20.4359 98.9415 19.3071 97.3489 18.2566C95.3496 16.9386 93.5723 16.687 91.2623 16.6961L82.6162 16.687L82.1368 13.2544C82.0108 12.3459 82.7183 11.5355 83.6363 11.5381L92.2877 11.5618C95.3975 11.5618 97.4243 11.9608 100.093 13.6405C102.655 15.2532 104.568 17.8249 105.44 19.4679C106.313 21.1109 107.28 24.7966 107.141 28.3405C107.023 31.3467 106.406 33.4537 105.2 35.7966C103.996 38.1395 102.269 39.9351 100.022 41.1833C97.7848 42.4417 95.1081 43.0709 91.992 43.0709L77.1476 43.1168Z" fill="white"/>
</svg>
