<svg width="244" height="52" viewBox="0 0 244 52" fill="none" xmlns="http://www.w3.org/2000/svg">
<rect width="243.959" height="42.959" rx="9.04968" fill="#FE7738"/>
<path d="M19.0785 17.1166C19.7205 17.1166 20.2695 17.2264 20.7256 17.446C21.1817 17.6572 21.5322 17.9655 21.7772 18.3709C22.0305 18.7679 22.1572 19.2493 22.1572 19.8152C22.1572 20.3811 22.0305 20.8668 21.7772 21.2722C21.5322 21.6692 21.1817 21.9775 20.7256 22.1971C20.2695 22.4083 19.7205 22.5138 19.0785 22.5138H17.3175V25.4785H15.5691V17.1166H19.0785ZM18.8125 21.1329C19.3362 21.1329 19.7289 21.0231 19.9907 20.8035C20.2526 20.5754 20.3835 20.246 20.3835 19.8152C20.3835 19.376 20.2526 19.0466 19.9907 18.827C19.7289 18.6074 19.3362 18.4976 18.8125 18.4976H17.3175V21.1329H18.8125ZM23.253 25.4785V17.1166H29.5244V18.5229H25.0014V20.6007H28.5615V21.9437H25.0014V24.0722H29.7018V25.4785H23.253ZM34.4505 17.1166C35.3965 17.1166 36.1397 17.3447 36.6803 17.8008C37.2209 18.2569 37.4912 18.8692 37.4912 19.6379C37.4912 20.4572 37.2209 21.0864 36.6803 21.5256C36.1397 21.9564 35.4007 22.1718 34.4631 22.1718L34.2858 22.2731H32.4867V25.4785H30.7636V17.1166H34.4505ZM34.2477 20.9428C34.7376 20.9428 35.1008 20.8457 35.3373 20.6514C35.5823 20.4487 35.7047 20.1404 35.7047 19.7265C35.7047 19.3127 35.5823 19.0086 35.3373 18.8143C35.1008 18.6116 34.7376 18.5103 34.2477 18.5103H32.4867V20.9428H34.2477ZM35.274 21.3102L37.9853 25.4785H36.0215L33.779 21.817L35.274 21.3102ZM45.1269 18.5229H40.6166V20.6514H44.1767V22.0577H40.6166V25.4785H38.8682V17.1166H45.1269V18.5229ZM49.6432 16.9899C50.471 16.9899 51.1847 17.1631 51.7844 17.5094C52.3841 17.8557 52.8444 18.3498 53.1654 18.9917C53.4948 19.6336 53.6595 20.4023 53.6595 21.2976C53.6595 22.1929 53.4948 22.9615 53.1654 23.6034C52.8444 24.2453 52.3841 24.7395 51.7844 25.0858C51.1847 25.4321 50.471 25.6052 49.6432 25.6052C48.8155 25.6052 48.0975 25.4321 47.4894 25.0858C46.8897 24.7395 46.4252 24.2453 46.0958 23.6034C45.7748 22.9615 45.6143 22.1929 45.6143 21.2976C45.6143 20.4023 45.7748 19.6336 46.0958 18.9917C46.4252 18.3498 46.8897 17.8557 47.4894 17.5094C48.0975 17.1631 48.8155 16.9899 49.6432 16.9899ZM49.6432 18.4216C49.1702 18.4216 48.769 18.5314 48.4396 18.751C48.1102 18.9706 47.8568 19.2958 47.6794 19.7265C47.5105 20.1489 47.4261 20.6725 47.4261 21.2976C47.4261 21.9141 47.5105 22.4378 47.6794 22.8686C47.8568 23.2994 48.1102 23.6245 48.4396 23.8441C48.769 24.0637 49.1702 24.1736 49.6432 24.1736C50.1078 24.1736 50.5048 24.0637 50.8342 23.8441C51.1636 23.6245 51.4127 23.2994 51.5817 22.8686C51.759 22.4378 51.8477 21.9141 51.8477 21.2976C51.8477 20.6725 51.759 20.1489 51.5817 19.7265C51.4127 19.2958 51.1636 18.9706 50.8342 18.751C50.5048 18.5314 50.1078 18.4216 49.6432 18.4216ZM58.6033 17.1166C59.5493 17.1166 60.2925 17.3447 60.8331 17.8008C61.3737 18.2569 61.644 18.8692 61.644 19.6379C61.644 20.4572 61.3737 21.0864 60.8331 21.5256C60.2925 21.9564 59.5535 22.1718 58.6159 22.1718L58.4386 22.2731H56.6395V25.4785H54.9164V17.1166H58.6033ZM58.4006 20.9428C58.8904 20.9428 59.2536 20.8457 59.4901 20.6514C59.7351 20.4487 59.8576 20.1404 59.8576 19.7265C59.8576 19.3127 59.7351 19.0086 59.4901 18.8143C59.2536 18.6116 58.8904 18.5103 58.4006 18.5103H56.6395V20.9428H58.4006ZM59.4268 21.3102L62.1381 25.4785H60.1743L57.9318 21.817L59.4268 21.3102ZM72.1177 17.1166V25.4785H70.534V21.1202L70.6227 18.675H70.5974L68.2788 25.4785H66.8472L64.5413 18.675H64.516L64.6047 21.1202V25.4785H63.021V17.1166H65.5549L67.0626 21.6777L67.5947 23.5654H67.62L68.1648 21.6903L69.6598 17.1166H72.1177ZM81.0453 25.4785H79.2335L78.5367 23.4387H75.3313L74.6345 25.4785H72.8481L75.9015 17.1166H77.9919L81.0453 25.4785ZM75.7241 22.1464H78.144L76.9277 18.4976L75.7241 22.1464ZM88.9625 17.1166V25.4785H86.9607L84.034 20.5627L83.3119 19.1944H83.2992L83.3499 20.6387V25.4785H81.7788V17.1166H83.768L86.6946 22.0197L87.4168 23.4007H87.4421L87.3914 21.9564V17.1166H88.9625ZM97.7964 23.1727C97.6359 23.7132 97.3825 24.1651 97.0362 24.5283C96.6899 24.8915 96.2803 25.1618 95.8073 25.3392C95.3343 25.5165 94.8148 25.6052 94.2489 25.6052C93.4212 25.6052 92.7032 25.4321 92.0951 25.0858C91.4954 24.7395 91.0309 24.2453 90.7015 23.6034C90.3805 22.9615 90.22 22.1929 90.22 21.2976C90.22 20.4023 90.3805 19.6336 90.7015 18.9917C91.0309 18.3498 91.4954 17.8557 92.0951 17.5094C92.7032 17.1631 93.4127 16.9899 94.2236 16.9899C94.7979 16.9899 95.3174 17.0702 95.7819 17.2306C96.2465 17.3827 96.6393 17.6192 96.9602 17.9401C97.2896 18.2611 97.5303 18.6665 97.6824 19.1564L96.0987 19.8279C95.9551 19.3211 95.7355 18.9621 95.4399 18.751C95.1442 18.5314 94.7642 18.4216 94.2996 18.4216C93.8435 18.4216 93.4423 18.5314 93.096 18.751C92.7581 18.9706 92.4963 19.2958 92.3105 19.7265C92.1247 20.1489 92.0318 20.6725 92.0318 21.2976C92.0318 21.9141 92.1162 22.4378 92.2852 22.8686C92.4625 23.2994 92.7201 23.6245 93.058 23.8441C93.3958 24.0637 93.8097 24.1736 94.2996 24.1736C94.7557 24.1736 95.1485 24.0511 95.4779 23.8061C95.8157 23.5612 96.0522 23.1896 96.1874 22.6912L97.7964 23.1727ZM98.7798 25.4785V17.1166H105.051V18.5229H100.528V20.6007H104.088V21.9437H100.528V24.0722H105.229V25.4785H98.7798ZM116.815 23.1727C116.654 23.7132 116.401 24.1651 116.054 24.5283C115.708 24.8915 115.298 25.1618 114.825 25.3392C114.352 25.5165 113.833 25.6052 113.267 25.6052C112.439 25.6052 111.721 25.4321 111.113 25.0858C110.514 24.7395 110.049 24.2453 109.72 23.6034C109.399 22.9615 109.238 22.1929 109.238 21.2976C109.238 20.4023 109.399 19.6336 109.72 18.9917C110.049 18.3498 110.514 17.8557 111.113 17.5094C111.721 17.1631 112.431 16.9899 113.242 16.9899C113.816 16.9899 114.336 17.0702 114.8 17.2306C115.265 17.3827 115.657 17.6192 115.978 17.9401C116.308 18.2611 116.549 18.6665 116.701 19.1564L115.117 19.8279C114.973 19.3211 114.754 18.9621 114.458 18.751C114.162 18.5314 113.782 18.4216 113.318 18.4216C112.862 18.4216 112.46 18.5314 112.114 18.751C111.776 18.9706 111.514 19.2958 111.329 19.7265C111.143 20.1489 111.05 20.6725 111.05 21.2976C111.05 21.9141 111.134 22.4378 111.303 22.8686C111.481 23.2994 111.738 23.6245 112.076 23.8441C112.414 24.0637 112.828 24.1736 113.318 24.1736C113.774 24.1736 114.167 24.0511 114.496 23.8061C114.834 23.5612 115.07 23.1896 115.206 22.6912L116.815 23.1727ZM121.409 16.9899C122.237 16.9899 122.95 17.1631 123.55 17.5094C124.15 17.8557 124.61 18.3498 124.931 18.9917C125.26 19.6336 125.425 20.4023 125.425 21.2976C125.425 22.1929 125.26 22.9615 124.931 23.6034C124.61 24.2453 124.15 24.7395 123.55 25.0858C122.95 25.4321 122.237 25.6052 121.409 25.6052C120.581 25.6052 119.863 25.4321 119.255 25.0858C118.655 24.7395 118.191 24.2453 117.861 23.6034C117.54 22.9615 117.38 22.1929 117.38 21.2976C117.38 20.4023 117.54 19.6336 117.861 18.9917C118.191 18.3498 118.655 17.8557 119.255 17.5094C119.863 17.1631 120.581 16.9899 121.409 16.9899ZM121.409 18.4216C120.936 18.4216 120.535 18.5314 120.205 18.751C119.876 18.9706 119.622 19.2958 119.445 19.7265C119.276 20.1489 119.192 20.6725 119.192 21.2976C119.192 21.9141 119.276 22.4378 119.445 22.8686C119.622 23.2994 119.876 23.6245 120.205 23.8441C120.535 24.0637 120.936 24.1736 121.409 24.1736C121.873 24.1736 122.27 24.0637 122.6 23.8441C122.929 23.6245 123.178 23.2994 123.347 22.8686C123.525 22.4378 123.613 21.9141 123.613 21.2976C123.613 20.6725 123.525 20.1489 123.347 19.7265C123.178 19.2958 122.929 18.9706 122.6 18.751C122.27 18.5314 121.873 18.4216 121.409 18.4216ZM128.43 24.0722H132.839V25.4785H126.682V17.1166H128.43V24.0722ZM135.533 24.0722H139.942V25.4785H133.784V17.1166H135.533V24.0722ZM140.887 25.4785V17.1166H147.158V18.5229H142.635V20.6007H146.195V21.9437H142.635V24.0722H147.336V25.4785H140.887ZM155.444 23.1727C155.284 23.7132 155.03 24.1651 154.684 24.5283C154.338 24.8915 153.928 25.1618 153.455 25.3392C152.982 25.5165 152.463 25.6052 151.897 25.6052C151.069 25.6052 150.351 25.4321 149.743 25.0858C149.143 24.7395 148.679 24.2453 148.349 23.6034C148.028 22.9615 147.868 22.1929 147.868 21.2976C147.868 20.4023 148.028 19.6336 148.349 18.9917C148.679 18.3498 149.143 17.8557 149.743 17.5094C150.351 17.1631 151.061 16.9899 151.872 16.9899C152.446 16.9899 152.965 17.0702 153.43 17.2306C153.894 17.3827 154.287 17.6192 154.608 17.9401C154.938 18.2611 155.178 18.6665 155.33 19.1564L153.747 19.8279C153.603 19.3211 153.383 18.9621 153.088 18.751C152.792 18.5314 152.412 18.4216 151.948 18.4216C151.491 18.4216 151.09 18.5314 150.744 18.751C150.406 18.9706 150.144 19.2958 149.958 19.7265C149.773 20.1489 149.68 20.6725 149.68 21.2976C149.68 21.9141 149.764 22.4378 149.933 22.8686C150.11 23.2994 150.368 23.6245 150.706 23.8441C151.044 24.0637 151.458 24.1736 151.948 24.1736C152.404 24.1736 152.796 24.0511 153.126 23.8061C153.464 23.5612 153.7 23.1896 153.835 22.6912L155.444 23.1727ZM163.041 17.1166V18.5229H160.241V25.4785H158.493V18.5229H155.68V17.1166H163.041ZM165.712 17.1166V25.4785H163.963V17.1166H165.712ZM174.6 17.1166L171.559 25.4785H169.52L166.466 17.1166H168.316L170.077 22.4378L170.559 24.0849L171.027 22.4505L172.801 17.1166H174.6ZM175.359 25.4785V17.1166H181.631V18.5229H177.108V20.6007H180.668V21.9437H177.108V24.0722H181.808V25.4785H175.359ZM188.415 25.6052C187.841 25.6052 187.338 25.5165 186.907 25.3392C186.485 25.1533 186.156 24.8915 185.919 24.5536C185.691 24.2073 185.577 23.7935 185.577 23.312C185.577 23.0671 185.611 22.8221 185.678 22.5772C185.746 22.3322 185.864 22.1 186.033 21.8804C186.21 21.6523 186.447 21.4454 186.743 21.2596C187.047 21.0737 187.431 20.9259 187.895 20.8161L188.339 20.6387C188.685 20.436 188.96 20.2544 189.162 20.094C189.365 19.925 189.509 19.7561 189.593 19.5872C189.686 19.4098 189.733 19.2113 189.733 18.9917C189.733 18.7468 189.657 18.5567 189.505 18.4216C189.352 18.278 189.15 18.2062 188.896 18.2062C188.609 18.2062 188.39 18.2907 188.238 18.4596C188.094 18.6201 188.022 18.8228 188.022 19.0677C188.022 19.2113 188.043 19.3507 188.086 19.4858C188.136 19.621 188.229 19.7899 188.364 19.9926C188.499 20.1869 188.698 20.4445 188.96 20.7654C189.23 21.0864 189.589 21.5045 190.037 22.0197C190.476 22.5265 190.843 22.9404 191.139 23.2613C191.443 23.5823 191.701 23.8273 191.912 23.9962C192.131 24.1567 192.338 24.2665 192.533 24.3256C192.735 24.3763 192.959 24.3889 193.204 24.3636L193.001 25.6052C192.689 25.6052 192.406 25.5756 192.152 25.5165C191.908 25.4658 191.65 25.356 191.38 25.1871C191.109 25.0097 190.793 24.7479 190.429 24.4016C190.075 24.0553 189.64 23.5908 189.124 23.008C188.584 22.4167 188.14 21.9226 187.794 21.5256C187.456 21.1286 187.194 20.7908 187.009 20.5121C186.823 20.2333 186.692 19.9799 186.616 19.7519C186.54 19.5238 186.502 19.2831 186.502 19.0297C186.502 18.6919 186.586 18.3667 186.755 18.0542C186.924 17.7416 187.186 17.4883 187.541 17.294C187.895 17.0913 188.352 16.9899 188.909 16.9899C189.407 16.9899 189.817 17.0744 190.138 17.2433C190.467 17.4122 190.712 17.6361 190.873 17.9148C191.042 18.1935 191.126 18.506 191.126 18.8523C191.126 19.1986 191.054 19.5238 190.911 19.8279C190.767 20.1235 190.527 20.398 190.189 20.6514C189.859 20.8964 189.407 21.1202 188.833 21.3229L188.428 21.5256C188.081 21.703 187.811 21.8719 187.617 22.0324C187.422 22.1929 187.287 22.366 187.211 22.5519C187.135 22.7292 187.097 22.9404 187.097 23.1853C187.097 23.4303 187.165 23.6457 187.3 23.8315C187.435 24.0173 187.617 24.1609 187.845 24.2622C188.073 24.3636 188.335 24.4143 188.63 24.4143C189.053 24.4143 189.416 24.3425 189.72 24.1989C190.024 24.0553 190.311 23.861 190.581 23.6161L190.771 23.4007C190.949 23.1051 191.088 22.7715 191.19 22.3998C191.299 22.0282 191.342 21.6016 191.316 21.1202L192.545 21.1709C192.562 21.7114 192.486 22.2267 192.317 22.7166C192.157 23.2064 191.908 23.6372 191.57 24.0088L191.266 24.3002C190.97 24.6972 190.581 25.014 190.1 25.2505C189.627 25.487 189.065 25.6052 188.415 25.6052ZM202.863 28.0124C202.356 28.0124 201.896 27.9237 201.482 27.7464C201.076 27.5774 200.755 27.3072 200.519 26.9355C200.282 26.5639 200.164 26.0909 200.164 25.5165C200.164 25.3814 200.177 25.2378 200.202 25.0858C200.236 24.9337 200.287 24.7859 200.354 24.6423L201.494 24.465C201.435 24.617 201.389 24.7564 201.355 24.883C201.33 25.0013 201.317 25.1111 201.317 25.2125C201.317 25.601 201.389 25.8966 201.532 26.0993C201.676 26.302 201.866 26.4414 202.103 26.5174C202.339 26.5934 202.601 26.6314 202.888 26.6314C203.234 26.6314 203.53 26.5892 203.775 26.5047C204.028 26.4287 204.24 26.3189 204.408 26.1753L204.725 27.4803C204.514 27.6492 204.231 27.7801 203.876 27.8731C203.53 27.966 203.192 28.0124 202.863 28.0124ZM200.785 16.9899C201.613 16.9899 202.326 17.1631 202.926 17.5094C203.526 17.8557 203.986 18.3498 204.307 18.9917C204.637 19.6336 204.801 20.4023 204.801 21.2976C204.801 22.1929 204.637 22.9615 204.307 23.6034C203.986 24.2453 203.526 24.7395 202.926 25.0858C202.326 25.4321 201.613 25.6052 200.785 25.6052C199.957 25.6052 199.239 25.4321 198.631 25.0858C198.031 24.7395 197.567 24.2453 197.237 23.6034C196.917 22.9615 196.756 22.1929 196.756 21.2976C196.756 20.4023 196.917 19.6336 197.237 18.9917C197.567 18.3498 198.031 17.8557 198.631 17.5094C199.239 17.1631 199.957 16.9899 200.785 16.9899ZM200.785 18.4216C200.312 18.4216 199.911 18.5314 199.581 18.751C199.252 18.9706 198.999 19.2958 198.821 19.7265C198.652 20.1489 198.568 20.6725 198.568 21.2976C198.568 21.9141 198.652 22.4378 198.821 22.8686C198.999 23.2994 199.252 23.6245 199.581 23.8441C199.911 24.0637 200.312 24.1736 200.785 24.1736C201.25 24.1736 201.646 24.0637 201.976 23.8441C202.305 23.6245 202.554 23.2994 202.723 22.8686C202.901 22.4378 202.989 21.9141 202.989 21.2976C202.989 20.6725 202.901 20.1489 202.723 19.7265C202.554 19.2958 202.305 18.9706 201.976 18.751C201.646 18.5314 201.25 18.4216 200.785 18.4216ZM213.057 17.1166L210.016 25.4785H207.977L204.923 17.1166H206.773L208.534 22.4378L209.016 24.0849L209.484 22.4505L211.258 17.1166H213.057ZM220.752 23.1727C220.591 23.7132 220.338 24.1651 219.992 24.5283C219.645 24.8915 219.236 25.1618 218.763 25.3392C218.29 25.5165 217.77 25.6052 217.204 25.6052C216.377 25.6052 215.659 25.4321 215.051 25.0858C214.451 24.7395 213.986 24.2453 213.657 23.6034C213.336 22.9615 213.175 22.1929 213.175 21.2976C213.175 20.4023 213.336 19.6336 213.657 18.9917C213.986 18.3498 214.451 17.8557 215.051 17.5094C215.659 17.1631 216.368 16.9899 217.179 16.9899C217.753 16.9899 218.273 17.0702 218.737 17.2306C219.202 17.3827 219.595 17.6192 219.916 17.9401C220.245 18.2611 220.486 18.6665 220.638 19.1564L219.054 19.8279C218.911 19.3211 218.691 18.9621 218.395 18.751C218.1 18.5314 217.72 18.4216 217.255 18.4216C216.799 18.4216 216.398 18.5314 216.051 18.751C215.714 18.9706 215.452 19.2958 215.266 19.7265C215.08 20.1489 214.987 20.6725 214.987 21.2976C214.987 21.9141 215.072 22.4378 215.241 22.8686C215.418 23.2994 215.676 23.6245 216.013 23.8441C216.351 24.0637 216.765 24.1736 217.255 24.1736C217.711 24.1736 218.104 24.0511 218.433 23.8061C218.771 23.5612 219.008 23.1896 219.143 22.6912L220.752 23.1727ZM228.349 17.1166V18.5229H225.549V25.4785H223.8V18.5229H220.988V17.1166H228.349Z" fill="#F0EEE9"/>
<path d="M131.029 33.9102H112.93V52.0095L131.029 33.9102Z" fill="#FE7738"/>
</svg>
