<svg width="533" height="409" viewBox="0 0 533 409" fill="none" xmlns="http://www.w3.org/2000/svg">
<path fill-rule="evenodd" clip-rule="evenodd" d="M324.902 5.42285C337.639 12.3094 349.544 19.7222 360.628 27.5859C224.071 164.357 106.778 289.45 80.4825 317.623C77.6322 320.677 78.7234 325.129 82.9161 326.522C126.319 340.946 265.888 365.175 414.666 388.636C407.62 395.831 399.989 402.64 391.777 409C221.472 383.223 53.598 355.467 4.22368 339.481C-0.179893 338.056 -1.32551 333.501 1.66802 330.376C31.1307 299.624 169.371 156.001 324.902 5.42285ZM388.276 0C561.911 96.3721 573.318 297.984 451.957 394.474C439.496 392.538 427.049 390.588 414.666 388.636C509.337 291.95 498.016 125.055 360.628 27.5859C369.765 18.4345 378.988 9.2305 388.276 0Z" fill="#B5ACFF"/>
</svg>
